<svg xmlns="http://www.w3.org/2000/svg" width="1209.776" height="1209.776"><path fill="#1c3865" d="m-29.232-.46 1271.584.608.09 1208.789-1272.169.38z"/><path fill="#f0574b" d="M455.72.403h302c3.056 152.348-.666 310.003-1 463h485c.554 97.999.838 196.004 0 294h-485v450c-104.747 1.36-167.203 1.725-300 0v-450h-485c-.824-97.996-.56-196.001 0-294h485c-.674-154.384-1.035-308.984-1-463"/><path fill="#fefcfc" d="M498.72 493.216c6.13-.085 8.033.084 12.687 5.062 4.27 5.51 3.405 12.574 3.312 19.125 9.358-5.24 18.522-10.844 27.754-16.308 5.184-2.664 7.872-3.93 12.246-5.692 9.796-1.66 19.186-2.31 29.125-2.25l3.84-.023c12.451-1.262 23.403 2.72 34.407 7.708l17.44 10.003c8.035 4.99 3.834 1.873 20.188 17.562l6 8 4 6 4 7 7 16c3.883 23.107 3.883 44.894 0 68l-1.586 3.29-8.726 17.585c-6.143 10.28-24.942 28.523-40.688 40.125-2.698 1.649-26.119 15.064-66 10l-21-6-20-13-5.683-4.628-1.775.113c-1.36 17.75.063.335-1.542 17.89-8.218 67.656 22.1 87.912 42.328 101.149 83.936 53.34 150.86-54.77 152.235-55.055 5.6.072 9.152.56 13.437 4.53 23.727 39.25-100.857 141.54-194 67-67.907-54.662-50.474-269.047-46-314 5.692-7.548 7.767-9.115 17-9.186"/><path fill="#fefdfd" d="M412.72 531.403c-2.523-24.367 19.29-23.546 25.14-11.688 1.18 48.097-2.32 103.58-3.64 151.626-1.884 1.39-22.426 10.998-21.5-16.938-20.968 15.218-39.7 22.309-61.938 19.25-117.318-22.087-65.068-226.92 61.937-142.25m399-1c90.976-62.335 163.5 45.79 111.063 114.5-12.274 14.255-53.273 52.507-111.063 9.5 1.658 23.298-22.826 23.482-24 14-.852-45.087-2.128-91.084-2.395-136.51.173-28.912 27.296-27.71 26.395-1.49"/><path fill="#f0584d" d="M902.72 627.403c-7.636 10.286-18.298 17.548-31 20-62.743 7.123-84.869-82.317-24.96-107.265 48.865-16.884 87.696 43.88 55.96 87.265"/><path fill="#f0594d" d="M400.72 628.403c-7.633 9.647-18.5 17.362-31 19-66.342 4.752-80.633-82.421-25.185-107.262 45.998-17.455 89.864 41.047 56.184 88.262"/><path fill="#fefefe" d="M864.72 555.403c5.07 3.527 8.037 7.147 10 13 .996 9.185.677 17.363-5 25-4.679 5.223-9.985 8.526-16.98 9.352-8.67.386-15.25-1.19-21.865-6.961-6.097-6.516-7.822-13.554-7.566-22.36.896-6.621 3.882-11.964 8.785-16.468 9.872-7.446 21.96-8.078 32.625-1.563"/><path fill="#fefefe" d="M626.41 540.028c14.594 10.153 23.141 20.575 28.79 37.426 2.87 26.442 1.951 49.987-14.395 71.974-13.468 15.036-28.743 24.547-48.886 26.923-24.962 1.112-43.904-3.42-62.944-20.04-17.554-18.76-22.52-39.021-21.783-64.372 2.58-19.064 11.177-34.445 25.292-47.413 28.42-21.437 63.223-23.254 93.926-4.498" style="fill:#f0574b;fill-opacity:1;stroke-width:1"/><path fill="#fefefe" d="M364.758 551.22c6.742 4.069 10.561 8.699 12.961 16.183 1.314 8.645.138 15.856-5 23-4.88 5.47-10.235 8.703-17.566 9.28-9.05.214-15.004-.671-22.047-6.752-5.656-6.23-6.808-14-6.727-22.098.68-6.866 3.666-12.217 8.715-16.867 8.947-6.763 19.616-7.988 29.664-2.746"/><path fill="#fefcfc" d="M395.72 592.403c3.62 1.894 5.687 4.065 7 8 .577 3.84.888 7.416-1.06 10.887-2.655 2.972-5.06 4.455-9.003 5.113-5.308 0-7.524-.963-11.75-4.062-2.635-3.54-2.804-5.49-2.547-9.79.65-3.887 2.263-6.175 5.164-8.75 3.831-2.44 7.817-2.15 12.195-1.398"/><path fill="#fefbfb" d="M899.72 589.403c3.577 2.863 5.93 5.506 7 10-.079 4.35-.514 6.392-3.25 9.813-3.94 3.133-6.179 4.215-11.25 4.125-5.03-1.347-7.307-3.876-9.876-8.313-.86-3.61-.585-6.041.375-9.625 4.871-6.09 9.383-8.04 17-6"/><path fill="#fdf6f6" d="M360.72 617.778c4.073.849 5.543 2.302 8 5.625.624 3 .624 3 0 6-2.457 3.323-3.927 4.776-8 5.625-4.075-.85-5.545-2.302-8-5.625-.626-3-.626-3 0-6 2.455-3.323 3.925-4.776 8-5.625"/><path fill="#fef7f7" d="M872.72 617.403c2.874 1.563 2.874 1.563 5 4 .624 3.5.624 3.5 0 7-2.558 2.933-4.167 3.86-8 4.5-3.835-.64-5.444-1.567-8-4.5-.626-3.5-.626-3.5 0-7 3.316-3.805 6.026-4.83 11-4"/></svg>