<svg width="1271.187" height="1208.384" xmlns="http://www.w3.org/2000/svg"><path d="m-.375-.685 1271.583.607.09 1208.789-1272.168.38z" fill="#1c3865"/><path d="M484.576.177h302c3.057 152.348-.665 310.003-1 463h485c.554 97.999.838 196.004 0 294h-485v450c-104.746 1.36-167.202 1.725-300 0v-450h-485c-.823-97.996-.56-196.001 0-294h485c-.673-154.384-1.034-308.984-1-463" fill="#f0574b"/><path d="M527.576 492.99c6.13-.085 8.034.084 12.688 5.062 4.27 5.51 3.405 12.574 3.312 19.125 9.358-5.24 18.522-10.844 27.754-16.308 5.184-2.664 7.872-3.93 12.246-5.692 9.796-1.66 19.186-2.31 29.125-2.25l3.84-.023c12.451-1.262 23.403 2.72 34.407 7.708l17.44 10.003c8.035 4.99 3.834 1.873 20.188 17.562l6 8 4 6 4 7 7 16c3.883 23.107 3.883 44.894 0 68l-1.586 3.29-8.726 17.585c-6.143 10.28-24.942 28.523-40.688 40.125-2.698 1.649-26.119 15.064-66 10l-21-6-20-13-5.683-4.628-1.775.113c-1.36 17.751.063.335-1.542 17.89-8.218 67.656 22.1 87.912 42.328 101.149 83.936 53.34 150.86-54.77 152.235-55.055 5.6.072 9.152.56 13.437 4.531 23.727 39.249-100.857 141.54-194 67-67.907-54.663-50.474-269.048-46-314 5.692-7.549 7.767-9.116 17-9.187" fill="#fefcfc"/><path d="M441.576 531.177c-2.522-24.367 19.29-23.546 25.14-11.688 1.18 48.097-2.319 103.58-3.64 151.626-1.883 1.39-22.425 10.998-21.5-16.938-20.967 15.218-39.7 22.309-61.937 19.25-117.318-22.087-65.068-226.92 61.937-142.25m399-1c90.976-62.335 163.5 45.79 111.063 114.5-12.274 14.255-53.273 52.507-111.063 9.5 1.658 23.298-22.826 23.482-24 14-.852-45.087-2.128-91.084-2.395-136.51.173-28.912 27.296-27.71 26.395-1.49" fill="#fefdfd"/><path d="M931.576 627.177c-7.635 10.286-18.297 17.548-31 20-62.742 7.123-84.868-82.317-24.96-107.265 48.866-16.884 87.697 43.881 55.96 87.265" fill="#f0584d"/><path d="M429.576 628.177c-7.632 9.647-18.5 17.362-31 19-66.341 4.752-80.632-82.421-25.184-107.262 45.998-17.455 89.864 41.047 56.184 88.262" fill="#f0594d"/><path d="M893.576 555.177c5.07 3.527 8.038 7.147 10 13 .997 9.185.678 17.363-5 25-4.678 5.223-9.984 8.526-16.98 9.352-8.67.386-15.25-1.189-21.864-6.961-6.097-6.516-7.822-13.554-7.566-22.36.896-6.621 3.882-11.964 8.785-16.468 9.872-7.446 21.96-8.078 32.625-1.563" fill="#fefefe"/><path d="M655.267 539.802c14.594 10.153 23.141 20.575 28.79 37.426 2.87 26.442 1.951 49.987-14.395 71.974-13.468 15.036-28.743 24.547-48.886 26.923-24.962 1.112-43.904-3.42-62.944-20.04-17.554-18.759-22.52-39.021-21.783-64.372 2.58-19.064 11.177-34.445 25.292-47.413 28.42-21.437 63.223-23.254 93.926-4.498" fill="#fefefe" style="fill:#f0574b;fill-opacity:1;stroke-width:1"/><path d="M393.615 550.994c6.742 4.069 10.561 8.699 12.961 16.183 1.314 8.645.138 15.856-5 23-4.88 5.471-10.235 8.703-17.566 9.281-9.051.213-15.004-.672-22.047-6.753-5.656-6.23-6.808-14-6.727-22.098.68-6.866 3.666-12.217 8.715-16.867 8.947-6.763 19.616-7.988 29.664-2.746" fill="#fefefe"/><path d="M424.576 592.177c3.62 1.894 5.688 4.065 7 8 .578 3.84.889 7.416-1.059 10.887-2.655 2.972-5.06 4.455-9.003 5.113-5.308 0-7.524-.963-11.75-4.062-2.635-3.539-2.804-5.49-2.547-9.79.65-3.887 2.263-6.175 5.164-8.75 3.831-2.44 7.817-2.15 12.195-1.398" fill="#fefcfc"/><path d="M928.576 589.177c3.578 2.863 5.93 5.506 7 10-.078 4.35-.513 6.392-3.25 9.813-3.94 3.133-6.178 4.215-11.25 4.125-5.03-1.347-7.306-3.876-9.875-8.313-.86-3.609-.585-6.041.375-9.625 4.871-6.09 9.383-8.04 17-6" fill="#fefbfb"/><path d="M389.576 617.552c4.074.849 5.544 2.302 8 5.625.625 3 .625 3 0 6-2.456 3.323-3.926 4.776-8 5.625-4.074-.849-5.544-2.302-8-5.625-.625-3-.625-3 0-6 2.456-3.323 3.926-4.776 8-5.625" fill="#fdf6f6"/><path d="M901.576 617.177c2.875 1.563 2.875 1.563 5 4 .625 3.5.625 3.5 0 7-2.557 2.933-4.166 3.861-8 4.5-3.834-.639-5.443-1.567-8-4.5-.625-3.5-.625-3.5 0-7 3.317-3.805 6.027-4.829 11-4" fill="#fef7f7"/></svg>