<svg xmlns="http://www.w3.org/2000/svg" viewBox="0 0 1920 1761">
	<path d="m 896,880 q 0,-106 -75,-181 -75,-75 -181,-75 -106,0 -181,75 -75,75 -75,181 0,106 75,181 75,75 181,75 106,0 181,-75 75,-75 75,-181 z m 768,512 q 0,-52 -38,-90 -38,-38 -90,-38 -52,0 -90,38 -38,38 -38,90 0,53 37.5,90.5 37.5,37.5 90.5,37.5 53,0 90.5,-37.5 37.5,-37.5 37.5,-90.5 z m 0,-1024 q 0,-52 -38,-90 -38,-38 -90,-38 -52,0 -90,38 -38,38 -38,90 0,53 37.5,90.5 37.5,37.5 90.5,37.5 53,0 90.5,-37.5 Q 1664,421 1664,368 Z m -384,421 v 185 q 0,10 -7,19.5 -7,9.5 -16,10.5 l -155,24 q -11,35 -32,76 34,48 90,115 7,11 7,20 0,12 -7,19 -23,30 -82.5,89.5 -59.5,59.5 -78.5,59.5 -11,0 -21,-7 l -115,-90 q -37,19 -77,31 -11,108 -23,155 -7,24 -30,24 H 547 q -11,0 -20,-7.5 -9,-7.5 -10,-17.5 l -23,-153 q -34,-10 -75,-31 l -118,89 q -7,7 -20,7 -11,0 -21,-8 -144,-133 -144,-160 0,-9 7,-19 10,-14 41,-53 31,-39 47,-61 -23,-44 -35,-82 L 24,1000 Q 14,999 7,990.5 0,982 0,971 V 786 Q 0,776 7,766.5 14,757 23,756 l 155,-24 q 11,-35 32,-76 -34,-48 -90,-115 -7,-11 -7,-20 0,-12 7,-20 22,-30 82,-89 60,-59 79,-59 11,0 21,7 l 115,90 q 34,-18 77,-32 11,-108 23,-154 7,-24 30,-24 h 186 q 11,0 20,7.5 9,7.5 10,17.5 l 23,153 q 34,10 75,31 l 118,-89 q 8,-7 20,-7 11,0 21,8 144,133 144,160 0,8 -7,19 -12,16 -42,54 -30,38 -45,60 23,48 34,82 l 152,23 q 10,2 17,10.5 7,8.5 7,19.5 z m 640,533 v 140 q 0,16 -149,31 -12,27 -30,52 51,113 51,138 0,4 -4,7 -122,71 -124,71 -8,0 -46,-47 -38,-47 -52,-68 -20,2 -30,2 -10,0 -30,-2 -14,21 -52,68 -38,47 -46,47 -2,0 -124,-71 -4,-3 -4,-7 0,-25 51,-138 -18,-25 -30,-52 -149,-15 -149,-31 v -140 q 0,-16 149,-31 13,-29 30,-52 -51,-113 -51,-138 0,-4 4,-7 4,-2 35,-20 31,-18 59,-34 28,-16 30,-16 8,0 46,46.5 38,46.5 52,67.5 20,-2 30,-2 10,0 30,2 51,-71 92,-112 l 6,-2 q 4,0 124,70 4,3 4,7 0,25 -51,138 17,23 30,52 149,15 149,31 z m 0,-1024 v 140 q 0,16 -149,31 -12,27 -30,52 51,113 51,138 0,4 -4,7 -122,71 -124,71 -8,0 -46,-47 -38,-47 -52,-68 -20,2 -30,2 -10,0 -30,-2 -14,21 -52,68 -38,47 -46,47 -2,0 -124,-71 -4,-3 -4,-7 0,-25 51,-138 -18,-25 -30,-52 -149,-15 -149,-31 V 298 q 0,-16 149,-31 13,-29 30,-52 -51,-113 -51,-138 0,-4 4,-7 4,-2 35,-20 31,-18 59,-34 28,-16 30,-16 8,0 46,46.5 38,46.5 52,67.5 20,-2 30,-2 10,0 30,2 51,-71 92,-112 l 6,-2 q 4,0 124,70 4,3 4,7 0,25 -51,138 17,23 30,52 149,15 149,31 z" fill="#000000"/>
</svg>