<svg width="350" height="350" xmlns="http://www.w3.org/2000/svg"><path d="M0 0h350v350H0V0z" fill="#1C3866"/><path d="M179 59h8l13 2-.753 70.677L211 135c1.265.347 61.32 16.88 90 36 100.142 62.325 14.075 67-14 67h-17a310 310 0 0 1-56-4l-13.93-3.066L150.038 220c-20.405-2.915-39.751-11.03-59.038-18-19.477-8.254-38.675-16.666-57-27-16.908-9.863-33.653-26.694-26-42 15-16 45-17 66-18 25-1 51 1 76 5V63c10-2 19-4 29-4z" fill="#ef9131"/><path d="M80 124h2c60 0 54.444 2.511 62.444 10.511L225 155c12-1 19.945-1.761 30.945 4.239l34.06 16.557c14.557 16.813 3.9 16.415 10.995 43.204-18.266 5.62-123.072 10.992-241-50l-3-2c-49.332-39.465 2.757-43 23-43z" fill="#e75347"/><path d="M200 58.847c-.278 27-.612 56.153-1 83.153l7 13-57-14c1.936-25.938.677-56.204.677-82.197 28.19-.666 30.498-.34 50.323.044z" fill="#e75347"/><path d="M80 124c61.913 0 66.372 3.761 69.62 3.662L150 156H73l4 21c-4-1-8-2-12-5l-7.403-3.968C25.48 150.819 21.112 124 80 124z" fill="#1c3866"/><path d="M150 221a86 86 0 0 1 18 3l32 7v48c-14 2-28 1-42 0l-8-3z" fill="#e45247"/><path d="M290 176c21 10 22.184 10.646 27.184 19.646C325.839 226.052 279.709 222.293 261 222h-3a345 345 0 0 1-58-6v-11l89.489-.215z" fill="#1c3866"/><path d="M150 247c9 1 9 1 13 3l17 4h2l18 2v24.142c-19.076.325-29-.153-50-.153z" fill="#a1272b"/><path d="m160 154 3 4c1.902 3.17 14.771 22.262 36-2 2.072-1.474 3.68-.58 6 0-1 6-5 10-9 14-6 3-10 4-16 4h-4c-7 0-12-3-17-8l-5-8c1.99-1.348 3.996-2.673 6-4z" fill="#f9eae8"/><path d="M198.924 138.986 224 148l3 1 22.241 7.3L244 156l-44.761-.457z" fill="#1d3866"/><path d="M150 247c5 0 8.408 1.054 13.377 2.085C176.399 251.632 188 255 200 256l-.139 2.677c-3.524 0-6.787-.496-10.861-.677l-39-2z" fill="#8d1f23"/><path d="M153.962 158.169C166.42 180.495 191.775 176.337 202 161l3-5 2 1-2 6c-3.665 10.964-11.437 12.088-22 13h-2c-19.657 0-21.465-.93-27-12z" fill="#d05249"/><path d="M114 156h31l-4 3c-4 2-5 4-9 4h-10c-4.536-.867-5.77-3.162-8-7z" fill="#d34c43"/><path d="M215 156h27c-3 3-5 4-9 4-5 0-8-1-12-3v16l-5.996.193L215 169c-.04-4.333-.04-8.667 0-13z" fill="#fbe3e4"/><path d="M70 156h3l4 21-5-1-3-2 1-18z" fill="#73121a"/><path d="M149.99 219.979c27.81 6.137 27.596 6.157 50.09 10.946l-.093 3.972c-4.433 0-36.124-4.261-49.987-11.193z" fill="#d4503d"/><path d="M118 156h18c-4 3-4.704 3-9.704 3-3.48.363-5.812-.525-8.296-3z" fill="#f8e8e2"/><path d="m221.087 157.184 5.685 2.256-2.772 2.218v13.913l-3.087.163.163-2.571-.065-6.391z" fill="#d44c47"/></svg>