<svg xmlns="http://www.w3.org/2000/svg" viewBox="0 0 16 16"><path fill="#cbd6e8" stroke="#92a0ad" d="M3 .5h10c1.385 0 2.5 1.115 2.5 2.5v10c0 1.385-1.115 2.5-2.5 2.5H3A2.495 2.495 0 0 1 .5 13V3C.5 1.615 1.615.5 3 .5z"/><path fill="#ff8c15" d="M14.22 12.29c0 .952-.244 1.98-1.299 1.98-1.986 0-.912-3.951-1.726-7.205-.915 2.32-1.373 4.85-2.407 7.111-.38.44-1.138.396-1.251.396-1.616-.714-1.585-2.747-2.059-4.292q-.27-.87-.507-1.774-.315.712-.57 1.425c-.637 1.542.194 3.946-1.615 4.577-1.668 0-1.48-2.194-1.188-3.484.71-3.194.757-1.266 2.107-7.791.416-1.978 3.148-2.472 3.04.3q0 1.743.238 3.438.237 1.695.728 3.373.65-1.49 1.093-3.041.443-1.553.855-3.12c.272-1.302.543-2.39 1.87-2.787 1.375.061 1.628.924 1.599 2.185 0 3.895 1.093 5.558 1.093 8.71z"/></svg>